<svg width="173" height="153" viewBox="0 0 173 153" fill="none" xmlns="http://www.w3.org/2000/svg">
<mask id="mask0" style="mask-type:alpha" maskUnits="userSpaceOnUse" x="-10" y="0" width="37" height="79">
<path d="M25.0109 15.5283C30.1078 34.0496 18.3899 64.948 11.8937 78.082C3.20908 61.9555 -12.0348 42.2718 -8.73293 18.5991C-5.72237 -2.98511 18.6396 -7.62336 25.0109 15.5283Z" fill="#849A72"/>
</mask>
<g mask="url(#mask0)">
<path d="M25.0109 15.5283C30.1078 34.0496 18.3899 64.948 11.8937 78.082C3.20908 61.9555 -12.0348 42.2718 -8.73293 18.5991C-5.72237 -2.98511 18.6396 -7.62336 25.0109 15.5283Z" fill="#849A72"/>
<path d="M11.7586 77.4333C11.0137 55.5443 10.37 16.8993 8.05325 0.540283" stroke="#145855" stroke-width="0.8" stroke-linecap="round" stroke-linejoin="round"/>
<path d="M25.4745 34.685L10.7931 46.0765L-6.33528 42.2794" stroke="#145855" stroke-width="0.8" stroke-linecap="round" stroke-linejoin="round"/>
<path d="M24.4406 14.6365L10.1703 25.665L-8.10562 18.1456" stroke="#145855" stroke-width="0.8" stroke-linecap="round" stroke-linejoin="round"/>
<path d="M20.6716 54.8411L11.3767 62.7825L1.83386 60.4247" stroke="#145855" stroke-width="0.8" stroke-linecap="round" stroke-linejoin="round"/>
</g>
<mask id="mask1" style="mask-type:alpha" maskUnits="userSpaceOnUse" x="40" y="2" width="51" height="69">
<path d="M86.3077 29.9944C75.4773 47.51 50.9699 63.9824 40.07 70.0292C40.9031 53.4869 46.1933 17.8584 60.6895 7.68284C78.8097 -5.0366 99.8458 8.09987 86.3077 29.9944Z" fill="#849A72"/>
</mask>
<g mask="url(#mask1)">
<path d="M86.3077 29.9944C75.4773 47.51 50.9699 63.9824 40.07 70.0292C40.9031 53.4869 46.1933 17.8584 60.6895 7.68284C78.8097 -5.0366 99.8458 8.09987 86.3077 29.9944Z" fill="#849A72"/>
<path d="M39.83 70.5417C50.5657 52.6538 74.8898 14.2063 86.3003 3.52002" stroke="#145855" stroke-width="0.8" stroke-linecap="round" stroke-linejoin="round"/>
<path d="M43.281 41.4224L49.531 54.9789L63.0726 54.9789" stroke="#145855" stroke-width="0.8" stroke-linecap="round" stroke-linejoin="round"/>
<path d="M49.5251 22.4438L58.291 41.4582L80.4142 41.4582" stroke="#145855" stroke-width="0.8" stroke-linecap="round" stroke-linejoin="round"/>
<path d="M63.4861 3.90307L69.8365 24.2842L92.2495 24.2842" stroke="#145855" stroke-width="0.8" stroke-linecap="round" stroke-linejoin="round"/>
</g>
<mask id="mask2" style="mask-type:alpha" maskUnits="userSpaceOnUse" x="78" y="44" width="95" height="43">
<path d="M154.793 46.0506C130.99 38.3847 93.9681 55.9101 78.4325 65.6311C91.0552 73.4773 122.043 88.5449 145.014 86.0453C173.727 82.9207 184.546 55.6329 154.793 46.0506Z" fill="#849A72"/>
</mask>
<g mask="url(#mask2)">
<path d="M154.793 46.0506C130.99 38.3847 93.9681 55.9101 78.4325 65.6311C91.0552 73.4773 122.043 88.5449 145.014 86.0453C173.727 82.9207 184.546 55.6329 154.793 46.0506Z" fill="#849A72"/>
<path d="M174.712 64.975C151.047 61.1786 87.1438 63.9377 76.0399 66.2296" stroke="#145855" stroke-width="0.8" stroke-linecap="round" stroke-linejoin="round"/>
<path d="M104.99 50.1099L98.3029 64.2723L104.99 80.4947" stroke="#145855" stroke-width="0.8" stroke-linecap="round" stroke-linejoin="round"/>
<path d="M126.863 44.7542L118.72 63.4881L130.329 86.5595" stroke="#145855" stroke-width="0.8" stroke-linecap="round" stroke-linejoin="round"/>
<path d="M150.093 42.156L139.57 62.9927L154.069 85.2348" stroke="#145855" stroke-width="0.8" stroke-linecap="round" stroke-linejoin="round"/>
</g>
<mask id="mask3" style="mask-type:alpha" maskUnits="userSpaceOnUse" x="58" y="67" width="55" height="64">
<path d="M108.712 100.497C98.7535 82.8301 71.2636 70.9465 58.7635 67.2131C60.5492 79.7275 68.0283 108.353 83.6587 122.739C103.197 140.722 121.159 122.581 108.712 100.497Z" fill="#849A72"/>
</mask>
<g mask="url(#mask3)">
<path d="M108.712 100.497C98.7535 82.8301 71.2636 70.9465 58.7635 67.2131C60.5492 79.7275 68.0283 108.353 83.6587 122.739C103.197 140.722 121.159 122.581 108.712 100.497Z" fill="#849A72"/>
<path d="M58.6936 66.4663C70.5248 81.6735 96.9677 115.433 109.974 127.721" stroke="#145855" stroke-width="0.8" stroke-linecap="round" stroke-linejoin="round"/>
<path d="M84.2285 76.3184L68.9854 79.1589L64.4814 93.9745" stroke="#145855" stroke-width="0.8" stroke-linecap="round" stroke-linejoin="round"/>
<path d="M99.3125 87.7017L80.287 93.1011L75.4932 114.998" stroke="#145855" stroke-width="0.8" stroke-linecap="round" stroke-linejoin="round"/>
<path d="M112.195 103.149L93.6191 109.448L90.6374 128.938" stroke="#145855" stroke-width="0.8" stroke-linecap="round" stroke-linejoin="round"/>
</g>
<mask id="mask4" style="mask-type:alpha" maskUnits="userSpaceOnUse" x="20" y="74" width="43" height="77">
<path d="M59.9932 118.856C52.4683 99.0722 32.2572 81.303 23.0922 74.8913C20.4392 88.1306 17.9792 119.555 29.363 139.339C43.5928 164.069 69.3993 143.586 59.9932 118.856Z" fill="#849A72"/>
</mask>
<g mask="url(#mask4)">
<path d="M59.9932 118.856C52.4683 99.0722 32.2572 81.303 23.0922 74.8913C20.4392 88.1306 17.9792 119.555 29.363 139.339C43.5928 164.069 69.3993 143.586 59.9932 118.856Z" fill="#849A72"/>
<path d="M22.7989 73.5386C29.5823 93.3322 45.5316 136.348 55.0615 150.063" stroke="#145855" stroke-width="0.8" stroke-linecap="round" stroke-linejoin="round"/>
<path d="M44.5867 91.7101L28.8269 90.3022L19.9074 106.001" stroke="#145855" stroke-width="0.8" stroke-linecap="round" stroke-linejoin="round"/>
<path d="M58.3341 111.345L36.1549 109.877L23.8739 130.247" stroke="#145855" stroke-width="0.8" stroke-linecap="round" stroke-linejoin="round"/>
</g>
<mask id="mask5" style="mask-type:alpha" maskUnits="userSpaceOnUse" x="-13" y="89" width="21" height="39">
<path d="M7.11374 114.807C4.98386 104.785 -6.37546 93.7505 -11.7889 89.4858C-13.2975 94.4611 -13.9467 109.336 -9.39277 118.805C-2.47065 133.198 9.77609 127.334 7.11374 114.807Z" fill="#849A72"/>
</mask>
<g mask="url(#mask5)">
<path d="M7.11374 114.807C4.98386 104.785 -6.37546 93.7505 -11.7889 89.4858C-13.2975 94.4611 -13.9467 109.336 -9.39277 118.805C-2.47065 133.198 9.77609 127.334 7.11374 114.807Z" fill="#849A72"/>
<path d="M-12.1992 88.5698C-10.0281 96.5395 -3.75905 115.495 3.9483 127.558" stroke="#145855" stroke-width="0.8" stroke-linecap="round" stroke-linejoin="round"/>
<path d="M1.30505 101.944L-8.16071 101.294L-12.8936 110.027" stroke="#145855" stroke-width="0.8" stroke-linecap="round" stroke-linejoin="round"/>
<path d="M7.15112 112.257L-3.52106 112.257L-8.81076 121.641" stroke="#145855" stroke-width="0.8" stroke-linecap="round" stroke-linejoin="round"/>
</g>
<path d="M-73.3365 140.452C-41.4285 102.705 6.04843 67.4843 80.0151 65.6274" stroke="#849A72" stroke-width="1.5" stroke-linecap="round" stroke-linejoin="round"/>
</svg>
