<svg width="228" height="145" viewBox="0 0 228 145" fill="none" xmlns="http://www.w3.org/2000/svg">
<path opacity="0.1" d="M2.15024 4.6217C3.33778 4.6217 4.30048 3.5871 4.30048 2.31085C4.30048 1.0346 3.33778 0 2.15024 0C0.962694 0 0 1.0346 0 2.31085C0 3.5871 0.962694 4.6217 2.15024 4.6217Z" fill="#3B4C68"/>
<path opacity="0.1" d="M20.7857 4.6217C21.9732 4.6217 22.9359 3.5871 22.9359 2.31085C22.9359 1.0346 21.9732 0 20.7857 0C19.5981 0 18.6354 1.0346 18.6354 2.31085C18.6354 3.5871 19.5981 4.6217 20.7857 4.6217Z" fill="#3B4C68"/>
<path opacity="0.1" d="M39.4211 4.6217C40.6087 4.6217 41.5714 3.5871 41.5714 2.31085C41.5714 1.0346 40.6087 0 39.4211 0C38.2336 0 37.2709 1.0346 37.2709 2.31085C37.2709 3.5871 38.2336 4.6217 39.4211 4.6217Z" fill="#3B4C68"/>
<path opacity="0.1" d="M58.0565 4.6217C59.244 4.6217 60.2067 3.5871 60.2067 2.31085C60.2067 1.0346 59.244 0 58.0565 0C56.8689 0 55.9062 1.0346 55.9062 2.31085C55.9062 3.5871 56.8689 4.6217 58.0565 4.6217Z" fill="#3B4C68"/>
<path opacity="0.1" d="M76.6919 4.6217C77.8795 4.6217 78.8422 3.5871 78.8422 2.31085C78.8422 1.0346 77.8795 0 76.6919 0C75.5044 0 74.5417 1.0346 74.5417 2.31085C74.5417 3.5871 75.5044 4.6217 76.6919 4.6217Z" fill="#3B4C68"/>
<path opacity="0.1" d="M95.3274 4.6217C96.5149 4.6217 97.4776 3.5871 97.4776 2.31085C97.4776 1.0346 96.5149 0 95.3274 0C94.1398 0 93.1771 1.0346 93.1771 2.31085C93.1771 3.5871 94.1398 4.6217 95.3274 4.6217Z" fill="#3B4C68"/>
<path opacity="0.1" d="M113.963 4.6217C115.15 4.6217 116.113 3.5871 116.113 2.31085C116.113 1.0346 115.15 0 113.963 0C112.775 0 111.813 1.0346 111.813 2.31085C111.813 3.5871 112.775 4.6217 113.963 4.6217Z" fill="#3B4C68"/>
<path opacity="0.1" d="M132.598 4.6217C133.786 4.6217 134.748 3.5871 134.748 2.31085C134.748 1.0346 133.786 0 132.598 0C131.411 0 130.448 1.0346 130.448 2.31085C130.448 3.5871 131.411 4.6217 132.598 4.6217Z" fill="#3B4C68"/>
<path opacity="0.1" d="M151.234 4.6217C152.421 4.6217 153.384 3.5871 153.384 2.31085C153.384 1.0346 152.421 0 151.234 0C150.046 0 149.083 1.0346 149.083 2.31085C149.083 3.5871 150.046 4.6217 151.234 4.6217Z" fill="#3B4C68"/>
<path opacity="0.1" d="M169.869 4.6217C171.057 4.6217 172.019 3.5871 172.019 2.31085C172.019 1.0346 171.057 0 169.869 0C168.681 0 167.719 1.0346 167.719 2.31085C167.719 3.5871 168.681 4.6217 169.869 4.6217Z" fill="#3B4C68"/>
<path opacity="0.1" d="M188.504 4.6217C189.692 4.6217 190.655 3.5871 190.655 2.31085C190.655 1.0346 189.692 0 188.504 0C187.317 0 186.354 1.0346 186.354 2.31085C186.354 3.5871 187.317 4.6217 188.504 4.6217Z" fill="#3B4C68"/>
<path opacity="0.1" d="M207.14 4.6217C208.327 4.6217 209.29 3.5871 209.29 2.31085C209.29 1.0346 208.327 0 207.14 0C205.952 0 204.99 1.0346 204.99 2.31085C204.99 3.5871 205.952 4.6217 207.14 4.6217Z" fill="#3B4C68"/>
<path opacity="0.1" d="M225.775 4.6217C226.963 4.6217 227.926 3.5871 227.926 2.31085C227.926 1.0346 226.963 0 225.775 0C224.588 0 223.625 1.0346 223.625 2.31085C223.625 3.5871 224.588 4.6217 225.775 4.6217Z" fill="#3B4C68"/>
<path opacity="0.1" d="M2.15024 24.6492C3.33778 24.6492 4.30048 23.6146 4.30048 22.3383C4.30048 21.0621 3.33778 20.0275 2.15024 20.0275C0.962694 20.0275 0 21.0621 0 22.3383C0 23.6146 0.962694 24.6492 2.15024 24.6492Z" fill="#3B4C68"/>
<path opacity="0.1" d="M20.7857 24.6492C21.9732 24.6492 22.9359 23.6146 22.9359 22.3383C22.9359 21.0621 21.9732 20.0275 20.7857 20.0275C19.5981 20.0275 18.6354 21.0621 18.6354 22.3383C18.6354 23.6146 19.5981 24.6492 20.7857 24.6492Z" fill="#3B4C68"/>
<path opacity="0.1" d="M39.4211 24.6492C40.6087 24.6492 41.5714 23.6146 41.5714 22.3383C41.5714 21.0621 40.6087 20.0275 39.4211 20.0275C38.2336 20.0275 37.2709 21.0621 37.2709 22.3383C37.2709 23.6146 38.2336 24.6492 39.4211 24.6492Z" fill="#3B4C68"/>
<path opacity="0.1" d="M58.0565 24.6492C59.244 24.6492 60.2067 23.6146 60.2067 22.3383C60.2067 21.0621 59.244 20.0275 58.0565 20.0275C56.8689 20.0275 55.9062 21.0621 55.9062 22.3383C55.9062 23.6146 56.8689 24.6492 58.0565 24.6492Z" fill="#3B4C68"/>
<path opacity="0.1" d="M76.6919 24.6492C77.8795 24.6492 78.8422 23.6146 78.8422 22.3383C78.8422 21.0621 77.8795 20.0275 76.6919 20.0275C75.5044 20.0275 74.5417 21.0621 74.5417 22.3383C74.5417 23.6146 75.5044 24.6492 76.6919 24.6492Z" fill="#3B4C68"/>
<path opacity="0.1" d="M95.3274 24.6492C96.5149 24.6492 97.4776 23.6146 97.4776 22.3383C97.4776 21.0621 96.5149 20.0275 95.3274 20.0275C94.1398 20.0275 93.1771 21.0621 93.1771 22.3383C93.1771 23.6146 94.1398 24.6492 95.3274 24.6492Z" fill="#3B4C68"/>
<path opacity="0.1" d="M113.963 24.6492C115.15 24.6492 116.113 23.6146 116.113 22.3383C116.113 21.0621 115.15 20.0275 113.963 20.0275C112.775 20.0275 111.813 21.0621 111.813 22.3383C111.813 23.6146 112.775 24.6492 113.963 24.6492Z" fill="#3B4C68"/>
<path opacity="0.1" d="M132.598 24.6492C133.786 24.6492 134.748 23.6146 134.748 22.3383C134.748 21.0621 133.786 20.0275 132.598 20.0275C131.411 20.0275 130.448 21.0621 130.448 22.3383C130.448 23.6146 131.411 24.6492 132.598 24.6492Z" fill="#3B4C68"/>
<path opacity="0.1" d="M151.234 24.6492C152.421 24.6492 153.384 23.6146 153.384 22.3383C153.384 21.0621 152.421 20.0275 151.234 20.0275C150.046 20.0275 149.083 21.0621 149.083 22.3383C149.083 23.6146 150.046 24.6492 151.234 24.6492Z" fill="#3B4C68"/>
<path opacity="0.1" d="M169.869 24.6492C171.057 24.6492 172.019 23.6146 172.019 22.3383C172.019 21.0621 171.057 20.0275 169.869 20.0275C168.681 20.0275 167.719 21.0621 167.719 22.3383C167.719 23.6146 168.681 24.6492 169.869 24.6492Z" fill="#3B4C68"/>
<path opacity="0.1" d="M188.504 24.6492C189.692 24.6492 190.655 23.6146 190.655 22.3383C190.655 21.0621 189.692 20.0275 188.504 20.0275C187.317 20.0275 186.354 21.0621 186.354 22.3383C186.354 23.6146 187.317 24.6492 188.504 24.6492Z" fill="#3B4C68"/>
<path opacity="0.1" d="M207.14 24.6492C208.327 24.6492 209.29 23.6146 209.29 22.3383C209.29 21.0621 208.327 20.0275 207.14 20.0275C205.952 20.0275 204.99 21.0621 204.99 22.3383C204.99 23.6146 205.952 24.6492 207.14 24.6492Z" fill="#3B4C68"/>
<path opacity="0.1" d="M225.775 24.6492C226.963 24.6492 227.926 23.6146 227.926 22.3383C227.926 21.0621 226.963 20.0275 225.775 20.0275C224.588 20.0275 223.625 21.0621 223.625 22.3383C223.625 23.6146 224.588 24.6492 225.775 24.6492Z" fill="#3B4C68"/>
<path opacity="0.1" d="M2.15024 44.6768C3.33778 44.6768 4.30048 43.6422 4.30048 42.3659C4.30048 41.0897 3.33778 40.0551 2.15024 40.0551C0.962694 40.0551 0 41.0897 0 42.3659C0 43.6422 0.962694 44.6768 2.15024 44.6768Z" fill="#3B4C68"/>
<path opacity="0.1" d="M20.7857 44.6768C21.9732 44.6768 22.9359 43.6422 22.9359 42.3659C22.9359 41.0897 21.9732 40.0551 20.7857 40.0551C19.5981 40.0551 18.6354 41.0897 18.6354 42.3659C18.6354 43.6422 19.5981 44.6768 20.7857 44.6768Z" fill="#3B4C68"/>
<path opacity="0.1" d="M39.4211 44.6768C40.6087 44.6768 41.5714 43.6422 41.5714 42.3659C41.5714 41.0897 40.6087 40.0551 39.4211 40.0551C38.2336 40.0551 37.2709 41.0897 37.2709 42.3659C37.2709 43.6422 38.2336 44.6768 39.4211 44.6768Z" fill="#3B4C68"/>
<path opacity="0.1" d="M58.0565 44.6768C59.244 44.6768 60.2067 43.6422 60.2067 42.3659C60.2067 41.0897 59.244 40.0551 58.0565 40.0551C56.8689 40.0551 55.9062 41.0897 55.9062 42.3659C55.9062 43.6422 56.8689 44.6768 58.0565 44.6768Z" fill="#3B4C68"/>
<path opacity="0.1" d="M76.6919 44.6768C77.8795 44.6768 78.8422 43.6422 78.8422 42.3659C78.8422 41.0897 77.8795 40.0551 76.6919 40.0551C75.5044 40.0551 74.5417 41.0897 74.5417 42.3659C74.5417 43.6422 75.5044 44.6768 76.6919 44.6768Z" fill="#3B4C68"/>
<path opacity="0.1" d="M95.3274 44.6768C96.5149 44.6768 97.4776 43.6422 97.4776 42.3659C97.4776 41.0897 96.5149 40.0551 95.3274 40.0551C94.1398 40.0551 93.1771 41.0897 93.1771 42.3659C93.1771 43.6422 94.1398 44.6768 95.3274 44.6768Z" fill="#3B4C68"/>
<path opacity="0.1" d="M113.963 44.6768C115.15 44.6768 116.113 43.6422 116.113 42.3659C116.113 41.0897 115.15 40.0551 113.963 40.0551C112.775 40.0551 111.813 41.0897 111.813 42.3659C111.813 43.6422 112.775 44.6768 113.963 44.6768Z" fill="#3B4C68"/>
<path opacity="0.1" d="M132.598 44.6768C133.786 44.6768 134.748 43.6422 134.748 42.3659C134.748 41.0897 133.786 40.0551 132.598 40.0551C131.411 40.0551 130.448 41.0897 130.448 42.3659C130.448 43.6422 131.411 44.6768 132.598 44.6768Z" fill="#3B4C68"/>
<path opacity="0.1" d="M151.234 44.6768C152.421 44.6768 153.384 43.6422 153.384 42.3659C153.384 41.0897 152.421 40.0551 151.234 40.0551C150.046 40.0551 149.083 41.0897 149.083 42.3659C149.083 43.6422 150.046 44.6768 151.234 44.6768Z" fill="#3B4C68"/>
<path opacity="0.1" d="M169.869 44.6768C171.057 44.6768 172.019 43.6422 172.019 42.3659C172.019 41.0897 171.057 40.0551 169.869 40.0551C168.681 40.0551 167.719 41.0897 167.719 42.3659C167.719 43.6422 168.681 44.6768 169.869 44.6768Z" fill="#3B4C68"/>
<path opacity="0.1" d="M188.504 44.6768C189.692 44.6768 190.655 43.6422 190.655 42.3659C190.655 41.0897 189.692 40.0551 188.504 40.0551C187.317 40.0551 186.354 41.0897 186.354 42.3659C186.354 43.6422 187.317 44.6768 188.504 44.6768Z" fill="#3B4C68"/>
<path opacity="0.1" d="M207.14 44.6768C208.327 44.6768 209.29 43.6422 209.29 42.3659C209.29 41.0897 208.327 40.0551 207.14 40.0551C205.952 40.0551 204.99 41.0897 204.99 42.3659C204.99 43.6422 205.952 44.6768 207.14 44.6768Z" fill="#3B4C68"/>
<path opacity="0.1" d="M225.775 44.6768C226.963 44.6768 227.926 43.6422 227.926 42.3659C227.926 41.0897 226.963 40.0551 225.775 40.0551C224.588 40.0551 223.625 41.0897 223.625 42.3659C223.625 43.6422 224.588 44.6768 225.775 44.6768Z" fill="#3B4C68"/>
<path opacity="0.1" d="M2.15024 64.7041C3.33778 64.7041 4.30048 63.6695 4.30048 62.3932C4.30048 61.117 3.33778 60.0824 2.15024 60.0824C0.962694 60.0824 0 61.117 0 62.3932C0 63.6695 0.962694 64.7041 2.15024 64.7041Z" fill="#3B4C68"/>
<path opacity="0.1" d="M20.7857 64.7041C21.9732 64.7041 22.9359 63.6695 22.9359 62.3932C22.9359 61.117 21.9732 60.0824 20.7857 60.0824C19.5981 60.0824 18.6354 61.117 18.6354 62.3932C18.6354 63.6695 19.5981 64.7041 20.7857 64.7041Z" fill="#3B4C68"/>
<path opacity="0.1" d="M39.4211 64.7041C40.6087 64.7041 41.5714 63.6695 41.5714 62.3932C41.5714 61.117 40.6087 60.0824 39.4211 60.0824C38.2336 60.0824 37.2709 61.117 37.2709 62.3932C37.2709 63.6695 38.2336 64.7041 39.4211 64.7041Z" fill="#3B4C68"/>
<path opacity="0.1" d="M58.0565 64.7041C59.244 64.7041 60.2067 63.6695 60.2067 62.3932C60.2067 61.117 59.244 60.0824 58.0565 60.0824C56.8689 60.0824 55.9062 61.117 55.9062 62.3932C55.9062 63.6695 56.8689 64.7041 58.0565 64.7041Z" fill="#3B4C68"/>
<path opacity="0.1" d="M76.6919 64.7041C77.8795 64.7041 78.8422 63.6695 78.8422 62.3932C78.8422 61.117 77.8795 60.0824 76.6919 60.0824C75.5044 60.0824 74.5417 61.117 74.5417 62.3932C74.5417 63.6695 75.5044 64.7041 76.6919 64.7041Z" fill="#3B4C68"/>
<path opacity="0.1" d="M95.3274 64.7041C96.5149 64.7041 97.4776 63.6695 97.4776 62.3932C97.4776 61.117 96.5149 60.0824 95.3274 60.0824C94.1398 60.0824 93.1771 61.117 93.1771 62.3932C93.1771 63.6695 94.1398 64.7041 95.3274 64.7041Z" fill="#3B4C68"/>
<path opacity="0.1" d="M113.963 64.7041C115.15 64.7041 116.113 63.6695 116.113 62.3932C116.113 61.117 115.15 60.0824 113.963 60.0824C112.775 60.0824 111.813 61.117 111.813 62.3932C111.813 63.6695 112.775 64.7041 113.963 64.7041Z" fill="#3B4C68"/>
<path opacity="0.1" d="M132.598 64.7041C133.786 64.7041 134.748 63.6695 134.748 62.3932C134.748 61.117 133.786 60.0824 132.598 60.0824C131.411 60.0824 130.448 61.117 130.448 62.3932C130.448 63.6695 131.411 64.7041 132.598 64.7041Z" fill="#3B4C68"/>
<path opacity="0.1" d="M151.234 64.7041C152.421 64.7041 153.384 63.6695 153.384 62.3932C153.384 61.117 152.421 60.0824 151.234 60.0824C150.046 60.0824 149.083 61.117 149.083 62.3932C149.083 63.6695 150.046 64.7041 151.234 64.7041Z" fill="#3B4C68"/>
<path opacity="0.1" d="M169.869 64.7041C171.057 64.7041 172.019 63.6695 172.019 62.3932C172.019 61.117 171.057 60.0824 169.869 60.0824C168.681 60.0824 167.719 61.117 167.719 62.3932C167.719 63.6695 168.681 64.7041 169.869 64.7041Z" fill="#3B4C68"/>
<path opacity="0.1" d="M188.504 64.7041C189.692 64.7041 190.655 63.6695 190.655 62.3932C190.655 61.117 189.692 60.0824 188.504 60.0824C187.317 60.0824 186.354 61.117 186.354 62.3932C186.354 63.6695 187.317 64.7041 188.504 64.7041Z" fill="#3B4C68"/>
<path opacity="0.1" d="M207.14 64.7041C208.327 64.7041 209.29 63.6695 209.29 62.3932C209.29 61.117 208.327 60.0824 207.14 60.0824C205.952 60.0824 204.99 61.117 204.99 62.3932C204.99 63.6695 205.952 64.7041 207.14 64.7041Z" fill="#3B4C68"/>
<path opacity="0.1" d="M225.775 64.7041C226.963 64.7041 227.926 63.6695 227.926 62.3932C227.926 61.117 226.963 60.0824 225.775 60.0824C224.588 60.0824 223.625 61.117 223.625 62.3932C223.625 63.6695 224.588 64.7041 225.775 64.7041Z" fill="#3B4C68"/>
<path opacity="0.1" d="M2.15024 84.7316C3.33778 84.7316 4.30048 83.697 4.30048 82.4207C4.30048 81.1445 3.33778 80.1099 2.15024 80.1099C0.962694 80.1099 0 81.1445 0 82.4207C0 83.697 0.962694 84.7316 2.15024 84.7316Z" fill="#3B4C68"/>
<path opacity="0.1" d="M20.7857 84.7316C21.9732 84.7316 22.9359 83.697 22.9359 82.4207C22.9359 81.1445 21.9732 80.1099 20.7857 80.1099C19.5981 80.1099 18.6354 81.1445 18.6354 82.4207C18.6354 83.697 19.5981 84.7316 20.7857 84.7316Z" fill="#3B4C68"/>
<path opacity="0.1" d="M39.4211 84.7316C40.6087 84.7316 41.5714 83.697 41.5714 82.4207C41.5714 81.1445 40.6087 80.1099 39.4211 80.1099C38.2336 80.1099 37.2709 81.1445 37.2709 82.4207C37.2709 83.697 38.2336 84.7316 39.4211 84.7316Z" fill="#3B4C68"/>
<path opacity="0.1" d="M58.0565 84.7316C59.244 84.7316 60.2067 83.697 60.2067 82.4207C60.2067 81.1445 59.244 80.1099 58.0565 80.1099C56.8689 80.1099 55.9062 81.1445 55.9062 82.4207C55.9062 83.697 56.8689 84.7316 58.0565 84.7316Z" fill="#3B4C68"/>
<path opacity="0.1" d="M76.6919 84.7316C77.8795 84.7316 78.8422 83.697 78.8422 82.4207C78.8422 81.1445 77.8795 80.1099 76.6919 80.1099C75.5044 80.1099 74.5417 81.1445 74.5417 82.4207C74.5417 83.697 75.5044 84.7316 76.6919 84.7316Z" fill="#3B4C68"/>
<path opacity="0.1" d="M95.3274 84.7316C96.5149 84.7316 97.4776 83.697 97.4776 82.4207C97.4776 81.1445 96.5149 80.1099 95.3274 80.1099C94.1398 80.1099 93.1771 81.1445 93.1771 82.4207C93.1771 83.697 94.1398 84.7316 95.3274 84.7316Z" fill="#3B4C68"/>
<path opacity="0.1" d="M113.963 84.7316C115.15 84.7316 116.113 83.697 116.113 82.4207C116.113 81.1445 115.15 80.1099 113.963 80.1099C112.775 80.1099 111.813 81.1445 111.813 82.4207C111.813 83.697 112.775 84.7316 113.963 84.7316Z" fill="#3B4C68"/>
<path opacity="0.1" d="M132.598 84.7316C133.786 84.7316 134.748 83.697 134.748 82.4207C134.748 81.1445 133.786 80.1099 132.598 80.1099C131.411 80.1099 130.448 81.1445 130.448 82.4207C130.448 83.697 131.411 84.7316 132.598 84.7316Z" fill="#3B4C68"/>
<path opacity="0.1" d="M151.234 84.7316C152.421 84.7316 153.384 83.697 153.384 82.4207C153.384 81.1445 152.421 80.1099 151.234 80.1099C150.046 80.1099 149.083 81.1445 149.083 82.4207C149.083 83.697 150.046 84.7316 151.234 84.7316Z" fill="#3B4C68"/>
<path opacity="0.1" d="M169.869 84.7316C171.057 84.7316 172.019 83.697 172.019 82.4207C172.019 81.1445 171.057 80.1099 169.869 80.1099C168.681 80.1099 167.719 81.1445 167.719 82.4207C167.719 83.697 168.681 84.7316 169.869 84.7316Z" fill="#3B4C68"/>
<path opacity="0.1" d="M188.504 84.7316C189.692 84.7316 190.655 83.697 190.655 82.4207C190.655 81.1445 189.692 80.1099 188.504 80.1099C187.317 80.1099 186.354 81.1445 186.354 82.4207C186.354 83.697 187.317 84.7316 188.504 84.7316Z" fill="#3B4C68"/>
<path opacity="0.1" d="M207.14 84.7316C208.327 84.7316 209.29 83.697 209.29 82.4207C209.29 81.1445 208.327 80.1099 207.14 80.1099C205.952 80.1099 204.99 81.1445 204.99 82.4207C204.99 83.697 205.952 84.7316 207.14 84.7316Z" fill="#3B4C68"/>
<path opacity="0.1" d="M225.775 84.7316C226.963 84.7316 227.926 83.697 227.926 82.4207C227.926 81.1445 226.963 80.1099 225.775 80.1099C224.588 80.1099 223.625 81.1445 223.625 82.4207C223.625 83.697 224.588 84.7316 225.775 84.7316Z" fill="#3B4C68"/>
<path opacity="0.1" d="M2.15024 104.759C3.33778 104.759 4.30048 103.725 4.30048 102.448C4.30048 101.172 3.33778 100.137 2.15024 100.137C0.962694 100.137 0 101.172 0 102.448C0 103.725 0.962694 104.759 2.15024 104.759Z" fill="#3B4C68"/>
<path opacity="0.1" d="M20.7857 104.759C21.9732 104.759 22.9359 103.725 22.9359 102.448C22.9359 101.172 21.9732 100.137 20.7857 100.137C19.5981 100.137 18.6354 101.172 18.6354 102.448C18.6354 103.725 19.5981 104.759 20.7857 104.759Z" fill="#3B4C68"/>
<path opacity="0.1" d="M39.4211 104.759C40.6087 104.759 41.5714 103.725 41.5714 102.448C41.5714 101.172 40.6087 100.137 39.4211 100.137C38.2336 100.137 37.2709 101.172 37.2709 102.448C37.2709 103.725 38.2336 104.759 39.4211 104.759Z" fill="#3B4C68"/>
<path opacity="0.1" d="M58.0565 104.759C59.244 104.759 60.2067 103.725 60.2067 102.448C60.2067 101.172 59.244 100.137 58.0565 100.137C56.8689 100.137 55.9062 101.172 55.9062 102.448C55.9062 103.725 56.8689 104.759 58.0565 104.759Z" fill="#3B4C68"/>
<path opacity="0.1" d="M76.6919 104.759C77.8795 104.759 78.8422 103.725 78.8422 102.448C78.8422 101.172 77.8795 100.137 76.6919 100.137C75.5044 100.137 74.5417 101.172 74.5417 102.448C74.5417 103.725 75.5044 104.759 76.6919 104.759Z" fill="#3B4C68"/>
<path opacity="0.1" d="M95.3274 104.759C96.5149 104.759 97.4776 103.725 97.4776 102.448C97.4776 101.172 96.5149 100.137 95.3274 100.137C94.1398 100.137 93.1771 101.172 93.1771 102.448C93.1771 103.725 94.1398 104.759 95.3274 104.759Z" fill="#3B4C68"/>
<path opacity="0.1" d="M113.963 104.759C115.15 104.759 116.113 103.725 116.113 102.448C116.113 101.172 115.15 100.137 113.963 100.137C112.775 100.137 111.813 101.172 111.813 102.448C111.813 103.725 112.775 104.759 113.963 104.759Z" fill="#3B4C68"/>
<path opacity="0.1" d="M132.598 104.759C133.786 104.759 134.748 103.725 134.748 102.448C134.748 101.172 133.786 100.137 132.598 100.137C131.411 100.137 130.448 101.172 130.448 102.448C130.448 103.725 131.411 104.759 132.598 104.759Z" fill="#3B4C68"/>
<path opacity="0.1" d="M151.234 104.759C152.421 104.759 153.384 103.725 153.384 102.448C153.384 101.172 152.421 100.137 151.234 100.137C150.046 100.137 149.083 101.172 149.083 102.448C149.083 103.725 150.046 104.759 151.234 104.759Z" fill="#3B4C68"/>
<path opacity="0.1" d="M169.869 104.759C171.057 104.759 172.019 103.725 172.019 102.448C172.019 101.172 171.057 100.137 169.869 100.137C168.681 100.137 167.719 101.172 167.719 102.448C167.719 103.725 168.681 104.759 169.869 104.759Z" fill="#3B4C68"/>
<path opacity="0.1" d="M188.504 104.759C189.692 104.759 190.655 103.725 190.655 102.448C190.655 101.172 189.692 100.137 188.504 100.137C187.317 100.137 186.354 101.172 186.354 102.448C186.354 103.725 187.317 104.759 188.504 104.759Z" fill="#3B4C68"/>
<path opacity="0.1" d="M207.14 104.759C208.327 104.759 209.29 103.725 209.29 102.448C209.29 101.172 208.327 100.137 207.14 100.137C205.952 100.137 204.99 101.172 204.99 102.448C204.99 103.725 205.952 104.759 207.14 104.759Z" fill="#3B4C68"/>
<path opacity="0.1" d="M225.775 104.759C226.963 104.759 227.926 103.725 227.926 102.448C227.926 101.172 226.963 100.137 225.775 100.137C224.588 100.137 223.625 101.172 223.625 102.448C223.625 103.725 224.588 104.759 225.775 104.759Z" fill="#3B4C68"/>
<path opacity="0.1" d="M2.15024 124.787C3.33778 124.787 4.30048 123.752 4.30048 122.476C4.30048 121.2 3.33778 120.165 2.15024 120.165C0.962694 120.165 0 121.2 0 122.476C0 123.752 0.962694 124.787 2.15024 124.787Z" fill="#3B4C68"/>
<path opacity="0.1" d="M20.7857 124.787C21.9732 124.787 22.9359 123.752 22.9359 122.476C22.9359 121.2 21.9732 120.165 20.7857 120.165C19.5981 120.165 18.6354 121.2 18.6354 122.476C18.6354 123.752 19.5981 124.787 20.7857 124.787Z" fill="#3B4C68"/>
<path opacity="0.1" d="M39.4211 124.787C40.6087 124.787 41.5714 123.752 41.5714 122.476C41.5714 121.2 40.6087 120.165 39.4211 120.165C38.2336 120.165 37.2709 121.2 37.2709 122.476C37.2709 123.752 38.2336 124.787 39.4211 124.787Z" fill="#3B4C68"/>
<path opacity="0.1" d="M58.0565 124.787C59.244 124.787 60.2067 123.752 60.2067 122.476C60.2067 121.2 59.244 120.165 58.0565 120.165C56.8689 120.165 55.9062 121.2 55.9062 122.476C55.9062 123.752 56.8689 124.787 58.0565 124.787Z" fill="#3B4C68"/>
<path opacity="0.1" d="M76.6919 124.787C77.8795 124.787 78.8422 123.752 78.8422 122.476C78.8422 121.2 77.8795 120.165 76.6919 120.165C75.5044 120.165 74.5417 121.2 74.5417 122.476C74.5417 123.752 75.5044 124.787 76.6919 124.787Z" fill="#3B4C68"/>
<path opacity="0.1" d="M95.3274 124.787C96.5149 124.787 97.4776 123.752 97.4776 122.476C97.4776 121.2 96.5149 120.165 95.3274 120.165C94.1398 120.165 93.1771 121.2 93.1771 122.476C93.1771 123.752 94.1398 124.787 95.3274 124.787Z" fill="#3B4C68"/>
<path opacity="0.1" d="M113.963 124.787C115.15 124.787 116.113 123.752 116.113 122.476C116.113 121.2 115.15 120.165 113.963 120.165C112.775 120.165 111.813 121.2 111.813 122.476C111.813 123.752 112.775 124.787 113.963 124.787Z" fill="#3B4C68"/>
<path opacity="0.1" d="M132.598 124.787C133.786 124.787 134.748 123.752 134.748 122.476C134.748 121.2 133.786 120.165 132.598 120.165C131.411 120.165 130.448 121.2 130.448 122.476C130.448 123.752 131.411 124.787 132.598 124.787Z" fill="#3B4C68"/>
<path opacity="0.1" d="M151.234 124.787C152.421 124.787 153.384 123.752 153.384 122.476C153.384 121.2 152.421 120.165 151.234 120.165C150.046 120.165 149.083 121.2 149.083 122.476C149.083 123.752 150.046 124.787 151.234 124.787Z" fill="#3B4C68"/>
<path opacity="0.1" d="M169.869 124.787C171.057 124.787 172.019 123.752 172.019 122.476C172.019 121.2 171.057 120.165 169.869 120.165C168.681 120.165 167.719 121.2 167.719 122.476C167.719 123.752 168.681 124.787 169.869 124.787Z" fill="#3B4C68"/>
<path opacity="0.1" d="M188.504 124.787C189.692 124.787 190.655 123.752 190.655 122.476C190.655 121.2 189.692 120.165 188.504 120.165C187.317 120.165 186.354 121.2 186.354 122.476C186.354 123.752 187.317 124.787 188.504 124.787Z" fill="#3B4C68"/>
<path opacity="0.1" d="M207.14 124.787C208.327 124.787 209.29 123.752 209.29 122.476C209.29 121.2 208.327 120.165 207.14 120.165C205.952 120.165 204.99 121.2 204.99 122.476C204.99 123.752 205.952 124.787 207.14 124.787Z" fill="#3B4C68"/>
<path opacity="0.1" d="M225.775 124.787C226.963 124.787 227.926 123.752 227.926 122.476C227.926 121.2 226.963 120.165 225.775 120.165C224.588 120.165 223.625 121.2 223.625 122.476C223.625 123.752 224.588 124.787 225.775 124.787Z" fill="#3B4C68"/>
<path opacity="0.1" d="M2.15024 144.814C3.33778 144.814 4.30048 143.78 4.30048 142.503C4.30048 141.227 3.33778 140.192 2.15024 140.192C0.962694 140.192 0 141.227 0 142.503C0 143.78 0.962694 144.814 2.15024 144.814Z" fill="#3B4C68"/>
<path opacity="0.1" d="M20.7857 144.814C21.9732 144.814 22.9359 143.78 22.9359 142.503C22.9359 141.227 21.9732 140.192 20.7857 140.192C19.5981 140.192 18.6354 141.227 18.6354 142.503C18.6354 143.78 19.5981 144.814 20.7857 144.814Z" fill="#3B4C68"/>
<path opacity="0.1" d="M39.4211 144.814C40.6087 144.814 41.5714 143.78 41.5714 142.503C41.5714 141.227 40.6087 140.192 39.4211 140.192C38.2336 140.192 37.2709 141.227 37.2709 142.503C37.2709 143.78 38.2336 144.814 39.4211 144.814Z" fill="#3B4C68"/>
<path opacity="0.1" d="M58.0565 144.814C59.244 144.814 60.2067 143.78 60.2067 142.503C60.2067 141.227 59.244 140.192 58.0565 140.192C56.8689 140.192 55.9062 141.227 55.9062 142.503C55.9062 143.78 56.8689 144.814 58.0565 144.814Z" fill="#3B4C68"/>
<path opacity="0.1" d="M76.6919 144.814C77.8795 144.814 78.8422 143.78 78.8422 142.503C78.8422 141.227 77.8795 140.192 76.6919 140.192C75.5044 140.192 74.5417 141.227 74.5417 142.503C74.5417 143.78 75.5044 144.814 76.6919 144.814Z" fill="#3B4C68"/>
<path opacity="0.1" d="M95.3274 144.814C96.5149 144.814 97.4776 143.78 97.4776 142.503C97.4776 141.227 96.5149 140.192 95.3274 140.192C94.1398 140.192 93.1771 141.227 93.1771 142.503C93.1771 143.78 94.1398 144.814 95.3274 144.814Z" fill="#3B4C68"/>
<path opacity="0.1" d="M113.963 144.814C115.15 144.814 116.113 143.78 116.113 142.503C116.113 141.227 115.15 140.192 113.963 140.192C112.775 140.192 111.813 141.227 111.813 142.503C111.813 143.78 112.775 144.814 113.963 144.814Z" fill="#3B4C68"/>
<path opacity="0.1" d="M132.598 144.814C133.786 144.814 134.748 143.78 134.748 142.503C134.748 141.227 133.786 140.192 132.598 140.192C131.411 140.192 130.448 141.227 130.448 142.503C130.448 143.78 131.411 144.814 132.598 144.814Z" fill="#3B4C68"/>
<path opacity="0.1" d="M151.234 144.814C152.421 144.814 153.384 143.78 153.384 142.503C153.384 141.227 152.421 140.192 151.234 140.192C150.046 140.192 149.083 141.227 149.083 142.503C149.083 143.78 150.046 144.814 151.234 144.814Z" fill="#3B4C68"/>
<path opacity="0.1" d="M169.869 144.814C171.057 144.814 172.019 143.78 172.019 142.503C172.019 141.227 171.057 140.192 169.869 140.192C168.681 140.192 167.719 141.227 167.719 142.503C167.719 143.78 168.681 144.814 169.869 144.814Z" fill="#3B4C68"/>
<path opacity="0.1" d="M188.504 144.814C189.692 144.814 190.655 143.78 190.655 142.503C190.655 141.227 189.692 140.192 188.504 140.192C187.317 140.192 186.354 141.227 186.354 142.503C186.354 143.78 187.317 144.814 188.504 144.814Z" fill="#3B4C68"/>
<path opacity="0.1" d="M207.14 144.814C208.327 144.814 209.29 143.78 209.29 142.503C209.29 141.227 208.327 140.192 207.14 140.192C205.952 140.192 204.99 141.227 204.99 142.503C204.99 143.78 205.952 144.814 207.14 144.814Z" fill="#3B4C68"/>
<path opacity="0.1" d="M225.775 144.814C226.963 144.814 227.926 143.78 227.926 142.503C227.926 141.227 226.963 140.192 225.775 140.192C224.588 140.192 223.625 141.227 223.625 142.503C223.625 143.78 224.588 144.814 225.775 144.814Z" fill="#3B4C68"/>
</svg>
