<svg width="760" height="440" viewBox="0 0 760 440" fill="none" xmlns="http://www.w3.org/2000/svg">
<path opacity="0.1" d="M445 9.20992C446.657 9.20992 448 7.76644 448 5.98582C448 4.2052 446.657 2.76172 445 2.76172C443.343 2.76172 442 4.2052 442 5.98582C442 7.76644 443.343 9.20992 445 9.20992Z" fill="#3B4C68"/>
<path opacity="0.1" d="M471 9.20992C472.657 9.20992 474 7.76644 474 5.98582C474 4.2052 472.657 2.76172 471 2.76172C469.343 2.76172 468 4.2052 468 5.98582C468 7.76644 469.343 9.20992 471 9.20992Z" fill="#3B4C68"/>
<path opacity="0.1" d="M497 9.20992C498.657 9.20992 500 7.76644 500 5.98582C500 4.2052 498.657 2.76172 497 2.76172C495.343 2.76172 494 4.2052 494 5.98582C494 7.76644 495.343 9.20992 497 9.20992Z" fill="#3B4C68"/>
<path opacity="0.1" d="M523 9.20992C524.657 9.20992 526 7.76644 526 5.98582C526 4.2052 524.657 2.76172 523 2.76172C521.343 2.76172 520 4.2052 520 5.98582C520 7.76644 521.343 9.20992 523 9.20992Z" fill="#3B4C68"/>
<path opacity="0.1" d="M549 9.20992C550.657 9.20992 552 7.76644 552 5.98582C552 4.2052 550.657 2.76172 549 2.76172C547.343 2.76172 546 4.2052 546 5.98582C546 7.76644 547.343 9.20992 549 9.20992Z" fill="#3B4C68"/>
<path opacity="0.1" d="M575 9.20992C576.657 9.20992 578 7.76644 578 5.98582C578 4.2052 576.657 2.76172 575 2.76172C573.343 2.76172 572 4.2052 572 5.98582C572 7.76644 573.343 9.20992 575 9.20992Z" fill="#3B4C68"/>
<path opacity="0.1" d="M601 9.20992C602.657 9.20992 604 7.76644 604 5.98582C604 4.2052 602.657 2.76172 601 2.76172C599.343 2.76172 598 4.2052 598 5.98582C598 7.76644 599.343 9.20992 601 9.20992Z" fill="#3B4C68"/>
<path opacity="0.1" d="M627 9.20992C628.657 9.20992 630 7.76644 630 5.98582C630 4.2052 628.657 2.76172 627 2.76172C625.343 2.76172 624 4.2052 624 5.98582C624 7.76644 625.343 9.20992 627 9.20992Z" fill="#3B4C68"/>
<path opacity="0.1" d="M653 9.20992C654.657 9.20992 656 7.76644 656 5.98582C656 4.2052 654.657 2.76172 653 2.76172C651.343 2.76172 650 4.2052 650 5.98582C650 7.76644 651.343 9.20992 653 9.20992Z" fill="#3B4C68"/>
<path opacity="0.1" d="M679 9.20992C680.657 9.20992 682 7.76644 682 5.98582C682 4.2052 680.657 2.76172 679 2.76172C677.343 2.76172 676 4.2052 676 5.98582C676 7.76644 677.343 9.20992 679 9.20992Z" fill="#3B4C68"/>
<path opacity="0.1" d="M705 9.20992C706.657 9.20992 708 7.76644 708 5.98582C708 4.2052 706.657 2.76172 705 2.76172C703.343 2.76172 702 4.2052 702 5.98582C702 7.76644 703.343 9.20992 705 9.20992Z" fill="#3B4C68"/>
<path opacity="0.1" d="M731 9.20992C732.657 9.20992 734 7.76644 734 5.98582C734 4.2052 732.657 2.76172 731 2.76172C729.343 2.76172 728 4.2052 728 5.98582C728 7.76644 729.343 9.20992 731 9.20992Z" fill="#3B4C68"/>
<path opacity="0.1" d="M757 9.20992C758.657 9.20992 760 7.76644 760 5.98582C760 4.2052 758.657 2.76172 757 2.76172C755.343 2.76172 754 4.2052 754 5.98582C754 7.76644 755.343 9.20992 757 9.20992Z" fill="#3B4C68"/>
<path opacity="0.1" d="M445 37.1521C446.657 37.1521 448 35.7086 448 33.928C448 32.1473 446.657 30.7039 445 30.7039C443.343 30.7039 442 32.1473 442 33.928C442 35.7086 443.343 37.1521 445 37.1521Z" fill="#3B4C68"/>
<path opacity="0.1" d="M471 37.1521C472.657 37.1521 474 35.7086 474 33.928C474 32.1473 472.657 30.7039 471 30.7039C469.343 30.7039 468 32.1473 468 33.928C468 35.7086 469.343 37.1521 471 37.1521Z" fill="#3B4C68"/>
<path opacity="0.1" d="M497 37.1521C498.657 37.1521 500 35.7086 500 33.928C500 32.1473 498.657 30.7039 497 30.7039C495.343 30.7039 494 32.1473 494 33.928C494 35.7086 495.343 37.1521 497 37.1521Z" fill="#3B4C68"/>
<path opacity="0.1" d="M523 37.1521C524.657 37.1521 526 35.7086 526 33.928C526 32.1473 524.657 30.7039 523 30.7039C521.343 30.7039 520 32.1473 520 33.928C520 35.7086 521.343 37.1521 523 37.1521Z" fill="#3B4C68"/>
<path opacity="0.1" d="M549 37.1521C550.657 37.1521 552 35.7086 552 33.928C552 32.1473 550.657 30.7039 549 30.7039C547.343 30.7039 546 32.1473 546 33.928C546 35.7086 547.343 37.1521 549 37.1521Z" fill="#3B4C68"/>
<path opacity="0.1" d="M575 37.1521C576.657 37.1521 578 35.7086 578 33.928C578 32.1473 576.657 30.7039 575 30.7039C573.343 30.7039 572 32.1473 572 33.928C572 35.7086 573.343 37.1521 575 37.1521Z" fill="#3B4C68"/>
<path opacity="0.1" d="M601 37.1521C602.657 37.1521 604 35.7086 604 33.928C604 32.1473 602.657 30.7039 601 30.7039C599.343 30.7039 598 32.1473 598 33.928C598 35.7086 599.343 37.1521 601 37.1521Z" fill="#3B4C68"/>
<path opacity="0.1" d="M627 37.1521C628.657 37.1521 630 35.7086 630 33.928C630 32.1473 628.657 30.7039 627 30.7039C625.343 30.7039 624 32.1473 624 33.928C624 35.7086 625.343 37.1521 627 37.1521Z" fill="#3B4C68"/>
<path opacity="0.1" d="M653 37.1521C654.657 37.1521 656 35.7086 656 33.928C656 32.1473 654.657 30.7039 653 30.7039C651.343 30.7039 650 32.1473 650 33.928C650 35.7086 651.343 37.1521 653 37.1521Z" fill="#3B4C68"/>
<path opacity="0.1" d="M679 37.1521C680.657 37.1521 682 35.7086 682 33.928C682 32.1473 680.657 30.7039 679 30.7039C677.343 30.7039 676 32.1473 676 33.928C676 35.7086 677.343 37.1521 679 37.1521Z" fill="#3B4C68"/>
<path opacity="0.1" d="M705 37.1521C706.657 37.1521 708 35.7086 708 33.928C708 32.1473 706.657 30.7039 705 30.7039C703.343 30.7039 702 32.1473 702 33.928C702 35.7086 703.343 37.1521 705 37.1521Z" fill="#3B4C68"/>
<path opacity="0.1" d="M731 37.1521C732.657 37.1521 734 35.7086 734 33.928C734 32.1473 732.657 30.7039 731 30.7039C729.343 30.7039 728 32.1473 728 33.928C728 35.7086 729.343 37.1521 731 37.1521Z" fill="#3B4C68"/>
<path opacity="0.1" d="M757 37.1521C758.657 37.1521 760 35.7086 760 33.928C760 32.1473 758.657 30.7039 757 30.7039C755.343 30.7039 754 32.1473 754 33.928C754 35.7086 755.343 37.1521 757 37.1521Z" fill="#3B4C68"/>
<path opacity="0.1" d="M445 65.0942C446.657 65.0942 448 63.6507 448 61.8701C448 60.0895 446.657 58.646 445 58.646C443.343 58.646 442 60.0895 442 61.8701C442 63.6507 443.343 65.0942 445 65.0942Z" fill="#3B4C68"/>
<path opacity="0.1" d="M471 65.0942C472.657 65.0942 474 63.6507 474 61.8701C474 60.0895 472.657 58.646 471 58.646C469.343 58.646 468 60.0895 468 61.8701C468 63.6507 469.343 65.0942 471 65.0942Z" fill="#3B4C68"/>
<path opacity="0.1" d="M497 65.0942C498.657 65.0942 500 63.6507 500 61.8701C500 60.0895 498.657 58.646 497 58.646C495.343 58.646 494 60.0895 494 61.8701C494 63.6507 495.343 65.0942 497 65.0942Z" fill="#3B4C68"/>
<path opacity="0.1" d="M523 65.0942C524.657 65.0942 526 63.6507 526 61.8701C526 60.0895 524.657 58.646 523 58.646C521.343 58.646 520 60.0895 520 61.8701C520 63.6507 521.343 65.0942 523 65.0942Z" fill="#3B4C68"/>
<path opacity="0.1" d="M549 65.0942C550.657 65.0942 552 63.6507 552 61.8701C552 60.0895 550.657 58.646 549 58.646C547.343 58.646 546 60.0895 546 61.8701C546 63.6507 547.343 65.0942 549 65.0942Z" fill="#3B4C68"/>
<path opacity="0.1" d="M575 65.0942C576.657 65.0942 578 63.6507 578 61.8701C578 60.0895 576.657 58.646 575 58.646C573.343 58.646 572 60.0895 572 61.8701C572 63.6507 573.343 65.0942 575 65.0942Z" fill="#3B4C68"/>
<path opacity="0.1" d="M601 65.0942C602.657 65.0942 604 63.6507 604 61.8701C604 60.0895 602.657 58.646 601 58.646C599.343 58.646 598 60.0895 598 61.8701C598 63.6507 599.343 65.0942 601 65.0942Z" fill="#3B4C68"/>
<path opacity="0.1" d="M627 65.0942C628.657 65.0942 630 63.6507 630 61.8701C630 60.0895 628.657 58.646 627 58.646C625.343 58.646 624 60.0895 624 61.8701C624 63.6507 625.343 65.0942 627 65.0942Z" fill="#3B4C68"/>
<path opacity="0.1" d="M653 65.0942C654.657 65.0942 656 63.6507 656 61.8701C656 60.0895 654.657 58.646 653 58.646C651.343 58.646 650 60.0895 650 61.8701C650 63.6507 651.343 65.0942 653 65.0942Z" fill="#3B4C68"/>
<path opacity="0.1" d="M679 65.0942C680.657 65.0942 682 63.6507 682 61.8701C682 60.0895 680.657 58.646 679 58.646C677.343 58.646 676 60.0895 676 61.8701C676 63.6507 677.343 65.0942 679 65.0942Z" fill="#3B4C68"/>
<path opacity="0.1" d="M705 65.0942C706.657 65.0942 708 63.6507 708 61.8701C708 60.0895 706.657 58.646 705 58.646C703.343 58.646 702 60.0895 702 61.8701C702 63.6507 703.343 65.0942 705 65.0942Z" fill="#3B4C68"/>
<path opacity="0.1" d="M731 65.0942C732.657 65.0942 734 63.6507 734 61.8701C734 60.0895 732.657 58.646 731 58.646C729.343 58.646 728 60.0895 728 61.8701C728 63.6507 729.343 65.0942 731 65.0942Z" fill="#3B4C68"/>
<path opacity="0.1" d="M757 65.0942C758.657 65.0942 760 63.6507 760 61.8701C760 60.0895 758.657 58.646 757 58.646C755.343 58.646 754 60.0895 754 61.8701C754 63.6507 755.343 65.0942 757 65.0942Z" fill="#3B4C68"/>
<path opacity="0.1" d="M445 93.0366C446.657 93.0366 448 91.5931 448 89.8125C448 88.0319 446.657 86.5884 445 86.5884C443.343 86.5884 442 88.0319 442 89.8125C442 91.5931 443.343 93.0366 445 93.0366Z" fill="#3B4C68"/>
<path opacity="0.1" d="M471 93.0366C472.657 93.0366 474 91.5931 474 89.8125C474 88.0319 472.657 86.5884 471 86.5884C469.343 86.5884 468 88.0319 468 89.8125C468 91.5931 469.343 93.0366 471 93.0366Z" fill="#3B4C68"/>
<path opacity="0.1" d="M497 93.0366C498.657 93.0366 500 91.5931 500 89.8125C500 88.0319 498.657 86.5884 497 86.5884C495.343 86.5884 494 88.0319 494 89.8125C494 91.5931 495.343 93.0366 497 93.0366Z" fill="#3B4C68"/>
<path opacity="0.1" d="M523 93.0366C524.657 93.0366 526 91.5931 526 89.8125C526 88.0319 524.657 86.5884 523 86.5884C521.343 86.5884 520 88.0319 520 89.8125C520 91.5931 521.343 93.0366 523 93.0366Z" fill="#3B4C68"/>
<path opacity="0.1" d="M549 93.0366C550.657 93.0366 552 91.5931 552 89.8125C552 88.0319 550.657 86.5884 549 86.5884C547.343 86.5884 546 88.0319 546 89.8125C546 91.5931 547.343 93.0366 549 93.0366Z" fill="#3B4C68"/>
<path opacity="0.1" d="M575 93.0366C576.657 93.0366 578 91.5931 578 89.8125C578 88.0319 576.657 86.5884 575 86.5884C573.343 86.5884 572 88.0319 572 89.8125C572 91.5931 573.343 93.0366 575 93.0366Z" fill="#3B4C68"/>
<path opacity="0.1" d="M601 93.0366C602.657 93.0366 604 91.5931 604 89.8125C604 88.0319 602.657 86.5884 601 86.5884C599.343 86.5884 598 88.0319 598 89.8125C598 91.5931 599.343 93.0366 601 93.0366Z" fill="#3B4C68"/>
<path opacity="0.1" d="M627 93.0366C628.657 93.0366 630 91.5931 630 89.8125C630 88.0319 628.657 86.5884 627 86.5884C625.343 86.5884 624 88.0319 624 89.8125C624 91.5931 625.343 93.0366 627 93.0366Z" fill="#3B4C68"/>
<path opacity="0.1" d="M653 93.0366C654.657 93.0366 656 91.5931 656 89.8125C656 88.0319 654.657 86.5884 653 86.5884C651.343 86.5884 650 88.0319 650 89.8125C650 91.5931 651.343 93.0366 653 93.0366Z" fill="#3B4C68"/>
<path opacity="0.1" d="M679 93.0366C680.657 93.0366 682 91.5931 682 89.8125C682 88.0319 680.657 86.5884 679 86.5884C677.343 86.5884 676 88.0319 676 89.8125C676 91.5931 677.343 93.0366 679 93.0366Z" fill="#3B4C68"/>
<path opacity="0.1" d="M705 93.0366C706.657 93.0366 708 91.5931 708 89.8125C708 88.0319 706.657 86.5884 705 86.5884C703.343 86.5884 702 88.0319 702 89.8125C702 91.5931 703.343 93.0366 705 93.0366Z" fill="#3B4C68"/>
<path opacity="0.1" d="M731 93.0366C732.657 93.0366 734 91.5931 734 89.8125C734 88.0319 732.657 86.5884 731 86.5884C729.343 86.5884 728 88.0319 728 89.8125C728 91.5931 729.343 93.0366 731 93.0366Z" fill="#3B4C68"/>
<path opacity="0.1" d="M757 93.0366C758.657 93.0366 760 91.5931 760 89.8125C760 88.0319 758.657 86.5884 757 86.5884C755.343 86.5884 754 88.0319 754 89.8125C754 91.5931 755.343 93.0366 757 93.0366Z" fill="#3B4C68"/>
<path opacity="0.1" d="M445 120.979C446.657 120.979 448 119.535 448 117.755C448 115.974 446.657 114.531 445 114.531C443.343 114.531 442 115.974 442 117.755C442 119.535 443.343 120.979 445 120.979Z" fill="#3B4C68"/>
<path opacity="0.1" d="M471 120.979C472.657 120.979 474 119.535 474 117.755C474 115.974 472.657 114.531 471 114.531C469.343 114.531 468 115.974 468 117.755C468 119.535 469.343 120.979 471 120.979Z" fill="#3B4C68"/>
<path opacity="0.1" d="M497 120.979C498.657 120.979 500 119.535 500 117.755C500 115.974 498.657 114.531 497 114.531C495.343 114.531 494 115.974 494 117.755C494 119.535 495.343 120.979 497 120.979Z" fill="#3B4C68"/>
<path opacity="0.1" d="M523 120.979C524.657 120.979 526 119.535 526 117.755C526 115.974 524.657 114.531 523 114.531C521.343 114.531 520 115.974 520 117.755C520 119.535 521.343 120.979 523 120.979Z" fill="#3B4C68"/>
<path opacity="0.1" d="M549 120.979C550.657 120.979 552 119.535 552 117.755C552 115.974 550.657 114.531 549 114.531C547.343 114.531 546 115.974 546 117.755C546 119.535 547.343 120.979 549 120.979Z" fill="#3B4C68"/>
<path opacity="0.1" d="M575 120.979C576.657 120.979 578 119.535 578 117.755C578 115.974 576.657 114.531 575 114.531C573.343 114.531 572 115.974 572 117.755C572 119.535 573.343 120.979 575 120.979Z" fill="#3B4C68"/>
<path opacity="0.1" d="M601 120.979C602.657 120.979 604 119.535 604 117.755C604 115.974 602.657 114.531 601 114.531C599.343 114.531 598 115.974 598 117.755C598 119.535 599.343 120.979 601 120.979Z" fill="#3B4C68"/>
<path opacity="0.1" d="M627 120.979C628.657 120.979 630 119.535 630 117.755C630 115.974 628.657 114.531 627 114.531C625.343 114.531 624 115.974 624 117.755C624 119.535 625.343 120.979 627 120.979Z" fill="#3B4C68"/>
<path opacity="0.1" d="M653 120.979C654.657 120.979 656 119.535 656 117.755C656 115.974 654.657 114.531 653 114.531C651.343 114.531 650 115.974 650 117.755C650 119.535 651.343 120.979 653 120.979Z" fill="#3B4C68"/>
<path opacity="0.1" d="M679 120.979C680.657 120.979 682 119.535 682 117.755C682 115.974 680.657 114.531 679 114.531C677.343 114.531 676 115.974 676 117.755C676 119.535 677.343 120.979 679 120.979Z" fill="#3B4C68"/>
<path opacity="0.1" d="M705 120.979C706.657 120.979 708 119.535 708 117.755C708 115.974 706.657 114.531 705 114.531C703.343 114.531 702 115.974 702 117.755C702 119.535 703.343 120.979 705 120.979Z" fill="#3B4C68"/>
<path opacity="0.1" d="M731 120.979C732.657 120.979 734 119.535 734 117.755C734 115.974 732.657 114.531 731 114.531C729.343 114.531 728 115.974 728 117.755C728 119.535 729.343 120.979 731 120.979Z" fill="#3B4C68"/>
<path opacity="0.1" d="M757 120.979C758.657 120.979 760 119.535 760 117.755C760 115.974 758.657 114.531 757 114.531C755.343 114.531 754 115.974 754 117.755C754 119.535 755.343 120.979 757 120.979Z" fill="#3B4C68"/>
<path opacity="0.1" d="M445 148.921C446.657 148.921 448 147.477 448 145.697C448 143.916 446.657 142.473 445 142.473C443.343 142.473 442 143.916 442 145.697C442 147.477 443.343 148.921 445 148.921Z" fill="#3B4C68"/>
<path opacity="0.1" d="M471 148.921C472.657 148.921 474 147.477 474 145.697C474 143.916 472.657 142.473 471 142.473C469.343 142.473 468 143.916 468 145.697C468 147.477 469.343 148.921 471 148.921Z" fill="#3B4C68"/>
<path opacity="0.1" d="M497 148.921C498.657 148.921 500 147.477 500 145.697C500 143.916 498.657 142.473 497 142.473C495.343 142.473 494 143.916 494 145.697C494 147.477 495.343 148.921 497 148.921Z" fill="#3B4C68"/>
<path opacity="0.1" d="M523 148.921C524.657 148.921 526 147.477 526 145.697C526 143.916 524.657 142.473 523 142.473C521.343 142.473 520 143.916 520 145.697C520 147.477 521.343 148.921 523 148.921Z" fill="#3B4C68"/>
<path opacity="0.1" d="M549 148.921C550.657 148.921 552 147.477 552 145.697C552 143.916 550.657 142.473 549 142.473C547.343 142.473 546 143.916 546 145.697C546 147.477 547.343 148.921 549 148.921Z" fill="#3B4C68"/>
<path opacity="0.1" d="M575 148.921C576.657 148.921 578 147.477 578 145.697C578 143.916 576.657 142.473 575 142.473C573.343 142.473 572 143.916 572 145.697C572 147.477 573.343 148.921 575 148.921Z" fill="#3B4C68"/>
<path opacity="0.1" d="M601 148.921C602.657 148.921 604 147.477 604 145.697C604 143.916 602.657 142.473 601 142.473C599.343 142.473 598 143.916 598 145.697C598 147.477 599.343 148.921 601 148.921Z" fill="#3B4C68"/>
<path opacity="0.1" d="M627 148.921C628.657 148.921 630 147.477 630 145.697C630 143.916 628.657 142.473 627 142.473C625.343 142.473 624 143.916 624 145.697C624 147.477 625.343 148.921 627 148.921Z" fill="#3B4C68"/>
<path opacity="0.1" d="M653 148.921C654.657 148.921 656 147.477 656 145.697C656 143.916 654.657 142.473 653 142.473C651.343 142.473 650 143.916 650 145.697C650 147.477 651.343 148.921 653 148.921Z" fill="#3B4C68"/>
<path opacity="0.1" d="M679 148.921C680.657 148.921 682 147.477 682 145.697C682 143.916 680.657 142.473 679 142.473C677.343 142.473 676 143.916 676 145.697C676 147.477 677.343 148.921 679 148.921Z" fill="#3B4C68"/>
<path opacity="0.1" d="M705 148.921C706.657 148.921 708 147.477 708 145.697C708 143.916 706.657 142.473 705 142.473C703.343 142.473 702 143.916 702 145.697C702 147.477 703.343 148.921 705 148.921Z" fill="#3B4C68"/>
<path opacity="0.1" d="M731 148.921C732.657 148.921 734 147.477 734 145.697C734 143.916 732.657 142.473 731 142.473C729.343 142.473 728 143.916 728 145.697C728 147.477 729.343 148.921 731 148.921Z" fill="#3B4C68"/>
<path opacity="0.1" d="M757 148.921C758.657 148.921 760 147.477 760 145.697C760 143.916 758.657 142.473 757 142.473C755.343 142.473 754 143.916 754 145.697C754 147.477 755.343 148.921 757 148.921Z" fill="#3B4C68"/>
<path opacity="0.1" d="M445 176.863C446.657 176.863 448 175.42 448 173.639C448 171.859 446.657 170.415 445 170.415C443.343 170.415 442 171.859 442 173.639C442 175.42 443.343 176.863 445 176.863Z" fill="#3B4C68"/>
<path opacity="0.1" d="M471 176.863C472.657 176.863 474 175.42 474 173.639C474 171.859 472.657 170.415 471 170.415C469.343 170.415 468 171.859 468 173.639C468 175.42 469.343 176.863 471 176.863Z" fill="#3B4C68"/>
<path opacity="0.1" d="M497 176.863C498.657 176.863 500 175.42 500 173.639C500 171.859 498.657 170.415 497 170.415C495.343 170.415 494 171.859 494 173.639C494 175.42 495.343 176.863 497 176.863Z" fill="#3B4C68"/>
<path opacity="0.1" d="M523 176.863C524.657 176.863 526 175.42 526 173.639C526 171.859 524.657 170.415 523 170.415C521.343 170.415 520 171.859 520 173.639C520 175.42 521.343 176.863 523 176.863Z" fill="#3B4C68"/>
<path opacity="0.1" d="M549 176.863C550.657 176.863 552 175.42 552 173.639C552 171.859 550.657 170.415 549 170.415C547.343 170.415 546 171.859 546 173.639C546 175.42 547.343 176.863 549 176.863Z" fill="#3B4C68"/>
<path opacity="0.1" d="M575 176.863C576.657 176.863 578 175.42 578 173.639C578 171.859 576.657 170.415 575 170.415C573.343 170.415 572 171.859 572 173.639C572 175.42 573.343 176.863 575 176.863Z" fill="#3B4C68"/>
<path opacity="0.1" d="M601 176.863C602.657 176.863 604 175.42 604 173.639C604 171.859 602.657 170.415 601 170.415C599.343 170.415 598 171.859 598 173.639C598 175.42 599.343 176.863 601 176.863Z" fill="#3B4C68"/>
<path opacity="0.1" d="M627 176.863C628.657 176.863 630 175.42 630 173.639C630 171.859 628.657 170.415 627 170.415C625.343 170.415 624 171.859 624 173.639C624 175.42 625.343 176.863 627 176.863Z" fill="#3B4C68"/>
<path opacity="0.1" d="M653 176.863C654.657 176.863 656 175.42 656 173.639C656 171.859 654.657 170.415 653 170.415C651.343 170.415 650 171.859 650 173.639C650 175.42 651.343 176.863 653 176.863Z" fill="#3B4C68"/>
<path opacity="0.1" d="M679 176.863C680.657 176.863 682 175.42 682 173.639C682 171.859 680.657 170.415 679 170.415C677.343 170.415 676 171.859 676 173.639C676 175.42 677.343 176.863 679 176.863Z" fill="#3B4C68"/>
<path opacity="0.1" d="M705 176.863C706.657 176.863 708 175.42 708 173.639C708 171.859 706.657 170.415 705 170.415C703.343 170.415 702 171.859 702 173.639C702 175.42 703.343 176.863 705 176.863Z" fill="#3B4C68"/>
<path opacity="0.1" d="M731 176.863C732.657 176.863 734 175.42 734 173.639C734 171.859 732.657 170.415 731 170.415C729.343 170.415 728 171.859 728 173.639C728 175.42 729.343 176.863 731 176.863Z" fill="#3B4C68"/>
<path opacity="0.1" d="M757 176.863C758.657 176.863 760 175.42 760 173.639C760 171.859 758.657 170.415 757 170.415C755.343 170.415 754 171.859 754 173.639C754 175.42 755.343 176.863 757 176.863Z" fill="#3B4C68"/>
<path opacity="0.1" d="M445 204.805C446.657 204.805 448 203.362 448 201.581C448 199.801 446.657 198.357 445 198.357C443.343 198.357 442 199.801 442 201.581C442 203.362 443.343 204.805 445 204.805Z" fill="#3B4C68"/>
<path opacity="0.1" d="M471 204.805C472.657 204.805 474 203.362 474 201.581C474 199.801 472.657 198.357 471 198.357C469.343 198.357 468 199.801 468 201.581C468 203.362 469.343 204.805 471 204.805Z" fill="#3B4C68"/>
<path opacity="0.1" d="M497 204.805C498.657 204.805 500 203.362 500 201.581C500 199.801 498.657 198.357 497 198.357C495.343 198.357 494 199.801 494 201.581C494 203.362 495.343 204.805 497 204.805Z" fill="#3B4C68"/>
<path opacity="0.1" d="M523 204.805C524.657 204.805 526 203.362 526 201.581C526 199.801 524.657 198.357 523 198.357C521.343 198.357 520 199.801 520 201.581C520 203.362 521.343 204.805 523 204.805Z" fill="#3B4C68"/>
<path opacity="0.1" d="M549 204.805C550.657 204.805 552 203.362 552 201.581C552 199.801 550.657 198.357 549 198.357C547.343 198.357 546 199.801 546 201.581C546 203.362 547.343 204.805 549 204.805Z" fill="#3B4C68"/>
<path opacity="0.1" d="M575 204.805C576.657 204.805 578 203.362 578 201.581C578 199.801 576.657 198.357 575 198.357C573.343 198.357 572 199.801 572 201.581C572 203.362 573.343 204.805 575 204.805Z" fill="#3B4C68"/>
<path opacity="0.1" d="M601 204.805C602.657 204.805 604 203.362 604 201.581C604 199.801 602.657 198.357 601 198.357C599.343 198.357 598 199.801 598 201.581C598 203.362 599.343 204.805 601 204.805Z" fill="#3B4C68"/>
<path opacity="0.1" d="M627 204.805C628.657 204.805 630 203.362 630 201.581C630 199.801 628.657 198.357 627 198.357C625.343 198.357 624 199.801 624 201.581C624 203.362 625.343 204.805 627 204.805Z" fill="#3B4C68"/>
<path opacity="0.1" d="M653 204.805C654.657 204.805 656 203.362 656 201.581C656 199.801 654.657 198.357 653 198.357C651.343 198.357 650 199.801 650 201.581C650 203.362 651.343 204.805 653 204.805Z" fill="#3B4C68"/>
<path opacity="0.1" d="M679 204.805C680.657 204.805 682 203.362 682 201.581C682 199.801 680.657 198.357 679 198.357C677.343 198.357 676 199.801 676 201.581C676 203.362 677.343 204.805 679 204.805Z" fill="#3B4C68"/>
<path opacity="0.1" d="M705 204.805C706.657 204.805 708 203.362 708 201.581C708 199.801 706.657 198.357 705 198.357C703.343 198.357 702 199.801 702 201.581C702 203.362 703.343 204.805 705 204.805Z" fill="#3B4C68"/>
<path opacity="0.1" d="M731 204.805C732.657 204.805 734 203.362 734 201.581C734 199.801 732.657 198.357 731 198.357C729.343 198.357 728 199.801 728 201.581C728 203.362 729.343 204.805 731 204.805Z" fill="#3B4C68"/>
<path opacity="0.1" d="M757 204.805C758.657 204.805 760 203.362 760 201.581C760 199.801 758.657 198.357 757 198.357C755.343 198.357 754 199.801 754 201.581C754 203.362 755.343 204.805 757 204.805Z" fill="#3B4C68"/>
<circle cx="40.5" cy="40.5" r="32.5" transform="rotate(-15 40.5 40.5)" fill="#8CBE6D"/>
<circle cx="100" cy="349" r="15" fill="#52A742"/>
<circle cx="635" cy="403" r="37" fill="#145855"/>
</svg>
