<svg width="32" height="32" viewBox="0 0 32 32" fill="none" xmlns="http://www.w3.org/2000/svg">
<path d="M15.7576 9.88779C12.2913 9.88779 9.4939 12.6852 9.4939 16.1515C9.4939 19.6178 12.2913 22.4152 15.7576 22.4152C19.2239 22.4152 22.0213 19.6178 22.0213 16.1515C22.0213 12.6852 19.2239 9.88779 15.7576 9.88779ZM15.7576 20.2225C13.516 20.2225 11.6867 18.3931 11.6867 16.1515C11.6867 13.9099 13.516 12.0806 15.7576 12.0806C17.9992 12.0806 19.8286 13.9099 19.8286 16.1515C19.8286 18.3931 17.9992 20.2225 15.7576 20.2225ZM22.2778 8.17146C21.4685 8.17146 20.815 8.82501 20.815 9.63432C20.815 10.4436 21.4685 11.0972 22.2778 11.0972C23.0872 11.0972 23.7407 10.4467 23.7407 9.63432C23.7409 9.44214 23.7033 9.25181 23.6298 9.07422C23.5564 8.89663 23.4487 8.73527 23.3128 8.59938C23.1769 8.4635 23.0155 8.35575 22.8379 8.28232C22.6604 8.20889 22.47 8.17122 22.2778 8.17146ZM27.9674 16.1515C27.9674 14.4657 27.9827 12.7952 27.888 11.1124C27.7933 9.15789 27.3475 7.42324 25.9182 5.99397C24.4859 4.56166 22.7543 4.11883 20.7997 4.02416C19.1139 3.92949 17.4434 3.94476 15.7607 3.94476C14.0749 3.94476 12.4043 3.92949 10.7216 4.02416C8.76706 4.11883 7.0324 4.56471 5.60314 5.99397C4.17082 7.42629 3.72799 9.15789 3.63332 11.1124C3.53865 12.7982 3.55392 14.4688 3.55392 16.1515C3.55392 17.8342 3.53865 19.5078 3.63332 21.1906C3.72799 23.1451 4.17387 24.8798 5.60314 26.309C7.03545 27.7413 8.76706 28.1842 10.7216 28.2788C12.4074 28.3735 14.0779 28.3582 15.7607 28.3582C17.4465 28.3582 19.117 28.3735 20.7997 28.2788C22.7543 28.1842 24.4889 27.7383 25.9182 26.309C27.3505 24.8767 27.7933 23.1451 27.888 21.1906C27.9857 19.5078 27.9674 17.8373 27.9674 16.1515ZM25.2799 23.3528C25.057 23.9086 24.7882 24.3239 24.3576 24.7515C23.927 25.1821 23.5147 25.4509 22.9589 25.6738C21.3525 26.3121 17.5381 26.1685 15.7576 26.1685C13.9771 26.1685 10.1597 26.3121 8.55328 25.6769C7.99745 25.4539 7.58211 25.1852 7.15456 24.7546C6.72395 24.3239 6.4552 23.9117 6.23226 23.3558C5.59703 21.7464 5.74056 17.932 5.74056 16.1515C5.74056 14.371 5.59703 10.5536 6.23226 8.94717C6.4552 8.39135 6.72395 7.97601 7.15456 7.54845C7.58517 7.12089 7.99745 6.84909 8.55328 6.62615C10.1597 5.99092 13.9771 6.13446 15.7576 6.13446C17.5381 6.13446 21.3555 5.99092 22.9619 6.62615C23.5178 6.84909 23.9331 7.11784 24.3607 7.54845C24.7913 7.97906 25.06 8.39135 25.283 8.94717C25.9182 10.5536 25.7747 14.371 25.7747 16.1515C25.7747 17.932 25.9182 21.7464 25.2799 23.3528Z" fill="#292742"/>
</svg>
